<svg width="90" height="24" viewBox="0 0 90 24" fill="none" xmlns="http://www.w3.org/2000/svg">
<path d="M23.5586 23H20.4648V3.38281L13.2227 23H10.7617L3.625 3.55859V23H0.53125V0.394531H5.48828L12.0273 18.6406L18.6016 0.394531H23.5586V23ZM38.2188 15.3008C37.5156 15.2305 36.9883 15.1953 36.6367 15.1953C36.0273 15.1953 35.4062 15.2539 34.7734 15.3711C34.1406 15.4648 33.4844 15.6289 32.8047 15.8633C32.1484 16.0742 31.5977 16.4141 31.1523 16.8828C30.7305 17.3516 30.5195 17.9023 30.5195 18.5352C30.5195 19.3789 30.8125 20.0586 31.3984 20.5742C32.0078 21.0664 32.7461 21.3125 33.6133 21.3125C35.3945 21.3125 36.6016 20.7852 37.2344 19.7305C37.8906 18.6758 38.2188 17.1992 38.2188 15.3008ZM41.5234 23H38.7461C38.582 22.2734 38.4531 21.5234 38.3594 20.75C37.6094 21.7109 36.8828 22.4023 36.1797 22.8242C35.4766 23.2227 34.6211 23.4219 33.6133 23.4219C32.1133 23.4219 30.7305 23.0234 29.4648 22.2266C28.2227 21.4062 27.6016 20.293 27.6016 18.8867C27.6016 17.7617 27.8594 16.8008 28.375 16.0039C28.8906 15.207 29.5938 14.6211 30.4844 14.2461C31.375 13.8477 32.2773 13.5664 33.1914 13.4023C34.1055 13.2383 35.0781 13.1562 36.1094 13.1562H38.2539C38.3008 12.7344 38.3242 12.418 38.3242 12.207C38.3242 10.1211 37.1641 9.07812 34.8438 9.07812C33.9062 9.07812 33.0859 9.28906 32.3828 9.71094C31.7031 10.1094 31.3633 10.7305 31.3633 11.5742H28.4453C28.4453 8.50391 30.543 6.96875 34.7383 6.96875C38.1367 6.96875 40.1523 7.84766 40.7852 9.60547C40.9961 10.1445 41.1016 11.4336 41.1016 13.4727V18.6055C41.1016 20.832 41.2422 22.2969 41.5234 23ZM59.1367 23H56.3594V12.6289C56.3594 11.5742 55.9727 10.6836 55.1992 9.95703C54.4492 9.20703 53.5469 8.83203 52.4922 8.83203C51.3672 8.83203 50.3945 9.21875 49.5742 9.99219C48.7773 10.7656 48.3789 11.7266 48.3789 12.875V23H45.5312V7.35547H48.3789V9.35938C49.5039 7.76562 51.0859 6.96875 53.125 6.96875C57.1328 6.96875 59.1367 8.89062 59.1367 12.7344V23ZM77.1016 23H74.2539V20.9961C73.2695 22.6133 71.6875 23.4219 69.5078 23.4219C65.5 23.4219 63.4961 21.5117 63.4961 17.6914V7.35547H66.3438V17.7266C66.3438 18.8047 66.7188 19.707 67.4688 20.4336C68.2188 21.1602 69.0977 21.5234 70.1055 21.5234C71.2539 21.5234 72.2266 21.1484 73.0234 20.3984C73.8438 19.625 74.2539 18.6289 74.2539 17.4102V7.35547H77.1016V23ZM89.3008 23C88.4805 23.2812 87.707 23.4219 86.9805 23.4219C85.5273 23.4219 84.4961 23.0938 83.8867 22.4375C83.3008 21.7812 83.0078 20.5977 83.0078 18.8867V9.35938H80.1602V7.35547H83.0078V4.22656L85.8555 3.06641V7.35547H89.3008V9.35938H85.8555V18.8867C85.8555 19.8242 85.9844 20.457 86.2422 20.7852C86.5234 21.1133 86.957 21.2773 87.543 21.2773C88.1523 21.2773 88.7383 21.1836 89.3008 20.9961V23Z" fill="white"/>
</svg>
